<?xml version="1.0" encoding="UTF-8" standalone="no"?>
<!-- Created with Inkscape (http://www.inkscape.org/) -->

<svg
   width="102.2858mm"
   height="54.848808mm"
   viewBox="0 0 102.2858 54.848808"
   version="1.1"
   id="svg1"
   xml:space="preserve"
   xmlns:inkscape="http://www.inkscape.org/namespaces/inkscape"
   xmlns:sodipodi="http://sodipodi.sourceforge.net/DTD/sodipodi-0.dtd"
   xmlns="http://www.w3.org/2000/svg"
   xmlns:svg="http://www.w3.org/2000/svg"><sodipodi:namedview
     id="namedview1"
     pagecolor="#ffffff"
     bordercolor="#000000"
     borderopacity="0.25"
     inkscape:showpageshadow="2"
     inkscape:pageopacity="0.0"
     inkscape:pagecheckerboard="0"
     inkscape:deskcolor="#d1d1d1"
     inkscape:document-units="mm"
     inkscape:zoom="1.0610059"
     inkscape:cx="1.8850037"
     inkscape:cy="169.17908"
     inkscape:window-width="3440"
     inkscape:window-height="1369"
     inkscape:window-x="-8"
     inkscape:window-y="1192"
     inkscape:window-maximized="1"
     inkscape:current-layer="layer1" /><defs
     id="defs1" /><g
     inkscape:label="Layer 1"
     inkscape:groupmode="layer"
     id="layer1"
     transform="translate(-45.435914,-62.496195)"><g
       id="g1"
       transform="translate(-4.7609482,-50.959778)"><path
         d="m 70.688905,168.28679 c 0,-0.0238 17.063676,-54.56341 17.088346,-54.61848 0.0105,-0.0234 0.0191,12.26019 0.0191,27.29693 v 27.33953 h -8.553715 c -4.704544,0 -8.553717,-0.008 -8.553717,-0.018 z"
         style="fill:#e21a12;stroke-width:0.707583"
         id="path1-5" /><path
         d="m 70.666455,140.96173 v -27.36292 h 8.565097 8.565099 l -0.10897,0.34752 c -0.0599,0.19113 -3.90047,12.46466 -8.534522,27.27451 -4.634053,14.80984 -8.439309,26.96679 -8.456127,27.01543 -0.02581,0.0747 -0.03058,-4.17103 -0.03058,-27.2745 z"
         style="fill:#bd1421;stroke-width:0.707583"
         id="path1-9" /><path
         d="m 101.21509,127.24042 v -13.66404 h 8.54736 8.54736 l -0.0658,0.10089 c -0.0362,0.0555 -3.855,6.16451 -8.48629,13.5756 -4.6313,7.41109 -8.44802,13.51451 -8.48161,13.56316 -0.0516,0.0747 -0.0611,-2.03213 -0.0611,-13.57561 z"
         style="fill:#bd1421"
         id="path1-7" /><path
         d="M 135.38795,127.13694 V 113.4729 h 8.54736 8.54736 l -0.0658,0.10089 c -0.0362,0.0555 -3.855,6.16451 -8.48629,13.57559 -4.6313,7.41109 -8.44802,13.51451 -8.48161,13.56316 -0.0516,0.0747 -0.0611,-2.03213 -0.0611,-13.5756 z"
         style="fill:#bd1421"
         id="path1-7-0" /><path
         d="m 60.431658,113.59881 h 10.234797 v 6.84073 6.84073 H 60.431658 50.19686 v -6.84073 -6.84073 z"
         style="fill:#bd1421;stroke-width:0.863816"
         id="path1-8" /><path
         d="m 101.23174,168.12381 c 0.0122,-0.0308 7.70234,-12.34371 17.08919,-27.36195 l 17.06702,-27.30589 v 27.36195 27.36194 h -17.0892 c -13.65329,0 -17.08473,-0.0113 -17.06701,-0.056 z"
         style="fill:#e21a12"
         id="path1" /><rect
         style="opacity:0.416529;fill:#000000;fill-opacity:0;stroke-width:1.905;stroke-linecap:square;stroke-linejoin:bevel"
         id="rect4"
         width="17.129887"
         height="54.705956"
         x="70.666458"
         y="113.59882"
         ry="1.5050381" /><rect
         style="opacity:1;fill:#bd1421;fill-opacity:1;stroke-width:1.905;stroke-linecap:square;stroke-linejoin:bevel"
         id="rect5"
         width="17.129578"
         height="54.705956"
         x="70.666458"
         y="113.59882"
         ry="0" /></g></g></svg>
